# xmcd CD database file
#
# Track frame offsets:
#	187
#	17517
#	38105
#	56795
#	72232
#	90880
#	105930
#	155187
#	173525
#	189610
#
# Disc length: 2793 seconds
#
# Revision: 0
# Processed by: cddbd v1.5PL3 Copyright (c) Steve Scherf et al.
# Submitted via: CDex 1.50beta8
#
DISCID=740ae70a
DTITLE=小泉今日子 - Ｄｏ　Ｙｏｕ　Ｌｏｖｅ　Me
DYEAR=1900
DGENRE=JPop
TTITLE0=Ｔｈｅ　Ｓｔａｒｄｕｓｔ　Ｍｅｍｏｒｙ
TTITLE1=魔女
TTITLE2=星にリボンをつけて
TTITLE3=真夜中のレッスン
TTITLE4=半分少女
TTITLE5=逆光線ボーイ
TTITLE6=私の16才　〜
TTITLE7=常夏娘
TTITLE8=迷宮のアンドローラ
TTITLE9=ラブコールをアンコール
EXTD=
EXTT0=
EXTT1=
EXTT2=
EXTT3=
EXTT4=
EXTT5=
EXTT6=
EXTT7=
EXTT8=
EXTT9=
PLAYORDER=
